<svg xmlns="http://www.w3.org/2000/svg" viewBox="0 0 402 402"><path d="M44.3.5h313.4c24.2 0 43.8 19.6 43.8 43.8v313.4c0 24.2-19.6 43.8-43.8 43.8H44.3C20.1 401.5.5 381.9.5 357.7V44.3C.5 20.1 20.1.5 44.3.5z" fill="#805ad5"/><path d="M278.3 97h-82c-11.7 0-21.3 9.5-21.3 21.3V231c0 11.7-9.5 21.3-21.3 21.3H145c-11.7 0-21.3-9.5-21.3-21.3V118.3c0-11.7-9.5-21.3-21.3-21.3H92.3C80.5 97 71 106.5 71 118.3v165.5c0 11.7 9.5 21.3 21.3 21.3h217.5c11.7 0 21.3-9.5 21.3-21.3v-10.2c0-11.7-9.5-21.3-21.3-21.3h-61.5c-11.7 0-21.3-9.5-21.3-21.3v-61.4c0-11.7 9.5-21.3 21.3-21.3h61.5c11.7 0 21.3-9.5 21.3-21.3v-8.7c0-11.7-9.5-21.3-21.3-21.3h-31.5z" fill="#fff"/></svg>