<svg xmlns="http://www.w3.org/2000/svg" viewBox="0 0 401 401"><g data-name="Layer 2"><g data-name="Layer 1"><rect width="401" height="401" rx="43.81" fill="#9561aa"/><path d="M277.78 96.5h-82a21.27 21.27 0 00-21.27 21.27v112.74a21.27 21.27 0 01-21.27 21.27h-8.74a21.28 21.28 0 01-21.27-21.27V117.77A21.27 21.27 0 00102 96.5H91.77a21.27 21.27 0 00-21.27 21.27v165.46a21.27 21.27 0 0021.27 21.27h217.46a21.27 21.27 0 0021.27-21.27v-10.18a21.27 21.27 0 00-21.27-21.27h-61.46a21.27 21.27 0 01-21.27-21.27v-61.46a21.27 21.27 0 0121.27-21.27h61.46a21.27 21.27 0 0021.27-21.27v-8.74a21.27 21.27 0 00-21.27-21.27z" fill="#fff"/></g></g></svg>